{"title":"FREE.STATE.OF.JONES.2016.1080P.DTS.BLURAY.X264-WF4U","uid":15906486,"size":2946420597,"categoryP":"video","categoryS":"movies","magnet":"?xt=urn:btih:2b84ec8c3a81fd8869d2e3406de09b8c29ecdfc4&amp;dn=FREE.STATE.OF.JONES.2016.1080P.DTS.BLURAY.X264-WF4U&amp;tr=udp%3A%2F%2Ftracker.leechers-paradise.org%3A6969&amp;tr=udp%3A%2F%2Fzer0day.ch%3A1337&amp;tr=udp%3A%2F%2Fopen.demonii.com%3A1337&amp;tr=udp%3A%2F%2Ftracker.coppersurfer.tk%3A6969&amp;tr=udp%3A%2F%2Fexodus.desync.com%3A6969","seeders":7,"leechers":3,"uploader":"rain0007","files":2,"time":1475051581,"description":"Video \r\nID                                       : 2 \r\nFormat                                   : AVC \r\nFormat/Info                              : Advanced Video Codec \r\nFormat profile                           :    \r\nFormat settings, CABAC                   : Yes \r\nFormat settings, ReFrames                : 4 frames \r\nCodec ID                                 : V_MPEG4/ISO/AVC \r\nDuration                                 : 2 h 19 min \r\nBit rate                                 : 2 050 kb/s \r\nWidth                                    : 1 920 pixels \r\nHeight                                   : 1 024 pixels \r\nDisplay aspect ratio                     : 1.85:1 \r\nFrame rate mode                          : Constant \r\nFrame rate                               : 23.976 (24000/1001) FPS \r\nColor space                              : YUV \r\nChroma subsampling                       : 4:2:0 \r\nBit depth                                : 8 bits \r\nScan type                                : Progressive \r\nBits/(Pixel*Frame)                       : 0.043 \r\nStream size                              : 1.95 GiB (71%) \r\nWriting library                          : x264 core 148 \r\nEncoding settings                        : cabac=1 / ref=4 / deblock=1:-1:-1 / analyse=0x3:0x133 / me=umh / subme=9 / psy=1 / psy_rd=1.00:0.15 / mixed_ref=1 / me_range=24 / chroma_me=1 / trellis=2 / 8x8dct=1 / cqm=0 / deadzone=21,11 / fast_pskip=0 / chroma_qp_offset=-3 / threads=12 / lookahead_threads=1 / sliced_threads=0 / nr=0 / decimate=1 / interlaced=0 / bluray_compat=0 / constrained_intra=0 / bframes=3 / b_pyramid=2 / b_adapt=2 / b_bias=0 / direct=3 / weightb=1 / open_gop=0 / weightp=2 / keyint=250 / keyint_min=23 / scenecut=40 / intra_refresh=0 / rc_lookahead=60 / rc=2pass / mbtree=1 / bitrate=2050 / ratetol=1.0 / qcomp=0.60 / qpmin=0 / qpmax=69 / qpstep=4 / cplxblur=20.0 / qblur=0.5 / vbv_maxrate=31250 / vbv_bufsize=31250 / nal_hrd=none / filler=0 / ip_ratio=1.40 / aq=1:1.00 \r\nDefault                                  : Yes \r\nForced                                   : No \r\n\r\nAudio \r\nID                                       : 1 \r\nFormat                                   : DTS \r\nFormat/Info                              : Digital Theater Systems \r\nMode                                     : 16 \r\nFormat settings, Endianness              : Big \r\nCodec ID                                 : A_DTS \r\nDuration                                 : 2 h 19 min \r\nBit rate mode                            : Constant \r\nBit rate                                 : 756 kb/s \r\nChannel(s)                               : 6 channels \r\nChannel positions                        : Front: L C R, Side: L R, LFE \r\nSampling rate                            : 48.0 kHz \r\nFrame rate                               : 93.750 FPS (512 spf) \r\nBit depth                                : 16 bits \r\nCompression mode                         : Lossy \r\nStream size                              : 757 MiB (27%) \r\nDefault                                  : Yes \r\nForced                                   : No","torrent":{"xt":"urn:btih:2b84ec8c3a81fd8869d2e3406de09b8c29ecdfc4","amp;dn":"FREE.STATE.OF.JONES.2016.1080P.DTS.BLURAY.X264-WF4U","amp;tr":["udp%3A%2F%2Ftracker.leechers-paradise.org%3A6969","udp%3A%2F%2Fzer0day.ch%3A1337","udp%3A%2F%2Fopen.demonii.com%3A1337","udp%3A%2F%2Ftracker.coppersurfer.tk%3A6969","udp%3A%2F%2Fexodus.desync.com%3A6969"],"infoHash":"2b84ec8c3a81fd8869d2e3406de09b8c29ecdfc4","infoHashBuffer":{"type":"Buffer","data":[43,132,236,140,58,129,253,136,105,210,227,64,109,224,155,140,41,236,223,196]},"announce":[],"urlList":[]}}